<?xml version="1.0" encoding="UTF-8" standalone="no"?>
<!-- Generator: Adobe Illustrator 12.0.0, SVG Export Plug-In . SVG Version: 6.00 Build 51448)  -->

<svg
   xmlns:dc="http://purl.org/dc/elements/1.1/"
   xmlns:cc="http://creativecommons.org/ns#"
   xmlns:rdf="http://www.w3.org/1999/02/22-rdf-syntax-ns#"
   xmlns:svg="http://www.w3.org/2000/svg"
   xmlns="http://www.w3.org/2000/svg"
   xmlns:sodipodi="http://sodipodi.sourceforge.net/DTD/sodipodi-0.dtd"
   xmlns:inkscape="http://www.inkscape.org/namespaces/inkscape"
   version="1.1"
   id="Layer_1"
   width="368.46887"
   height="166.12918"
   viewBox="0 0 368.46889 166.12919"
   overflow="visible"
   enable-background="new 0 0 414.722 672.592"
   xml:space="preserve"
   sodipodi:version="0.32"
   inkscape:version="0.48.4 r9939"
   sodipodi:docname="liquid-labs-logo-worksheet.svg"
   inkscape:output_extension="org.inkscape.output.svg.inkscape"
   inkscape:export-filename="/home/zane/playground/trunk/liquid_labs/public_relations/presence/site/images/liquid_labs_logo-220x396.png"
   inkscape:export-xdpi="53.740002"
   inkscape:export-ydpi="53.740002"
   style="overflow:visible"><metadata
     id="metadata88"><rdf:RDF><cc:Work
         rdf:about=""><dc:format>image/svg+xml</dc:format><dc:type
           rdf:resource="http://purl.org/dc/dcmitype/StillImage" /><dc:title></dc:title></cc:Work></rdf:RDF></metadata><defs
     id="defs86"><inkscape:perspective
       sodipodi:type="inkscape:persp3d"
       inkscape:vp_x="0 : 336.29599 : 1"
       inkscape:vp_y="0 : 1000 : 0"
       inkscape:vp_z="414.72198 : 336.29599 : 1"
       inkscape:persp3d-origin="207.36099 : 224.19733 : 1"
       id="perspective90" /></defs><sodipodi:namedview
     inkscape:window-height="752"
     inkscape:window-width="1280"
     inkscape:pageshadow="2"
     inkscape:pageopacity="0.0"
     guidetolerance="10.0"
     gridtolerance="10.0"
     objecttolerance="10.0"
     borderopacity="1.0"
     bordercolor="#666666"
     pagecolor="#ffffff"
     id="base"
     showgrid="false"
     inkscape:zoom="0.87789801"
     inkscape:cx="186.94286"
     inkscape:cy="53.742792"
     inkscape:window-x="0"
     inkscape:window-y="0"
     inkscape:current-layer="Layer_1"
     inkscape:window-maximized="1"
     fit-margin-top="0"
     fit-margin-left="0"
     fit-margin-right="0"
     fit-margin-bottom="0" /><g
     id="g4559"
     transform="translate(-1958.1296,-340.48907)"><path
       inkscape:export-ydpi="43.970001"
       inkscape:export-xdpi="43.970001"
       inkscape:export-filename="/home/zane/playground/trunk/liquid_labs/public_relations/presence/site/images/liquid_logo_redux-180x133.png.png"
       inkscape:connector-curvature="0"
       d="m 2013.7146,471.72776 -49.263,0 c -4.215,0 -6.322,-1.64 -6.322,-4.918 0,-0.645 0.088,-1.288 0.263,-1.932 l 20.109,-61.65 16.421,0 -13.348,41.101 c -0.234,0.585 -0.352,1.17 -0.352,1.756 0,3.396 2.107,5.094 6.323,5.094 l 32.842,0 -6.673,20.549 z"
       id="path4472"
       style="fill:#1b3382;fill-opacity:1" /><path
       inkscape:export-ydpi="43.970001"
       inkscape:export-xdpi="43.970001"
       inkscape:export-filename="/home/zane/playground/trunk/liquid_labs/public_relations/presence/site/images/liquid_logo_redux-180x133.png.png"
       inkscape:connector-curvature="0"
       d="m 2005.9056,444.35276 -16.508,0 8.957,-27.397 16.421,0 -8.87,27.397 z m 11.065,-34.25 -16.421,0 2.195,-6.875 16.509,0 -2.283,6.875 z"
       id="path4474"
       style="fill:#1b3382;fill-opacity:1" /><path
       inkscape:export-ydpi="43.970001"
       inkscape:export-xdpi="43.970001"
       inkscape:export-filename="/home/zane/playground/trunk/liquid_labs/public_relations/presence/site/images/liquid_logo_redux-180x133.png.png"
       inkscape:connector-curvature="0"
       d="m 2076.5146,471.72776 -49.35,0 c -4.157,0 -6.235,-1.667 -6.235,-5.001 0,-0.645 0.088,-1.259 0.264,-1.843 l 6.674,-20.531 -8.167,0 c -1.932,0 -3.454,-0.542 -4.566,-1.627 -1.112,-1.084 -1.668,-2.33 -1.668,-3.737 0,-0.527 0.059,-1.026 0.176,-1.495 l 4.479,-13.719 c 0.526,-1.641 1.902,-3.194 4.127,-4.66 2.225,-1.466 4.332,-2.199 6.322,-2.199 l 24.676,0 -8.957,27.406 c -0.234,0.761 -0.352,1.493 -0.352,2.196 0,3.104 2.137,4.655 6.411,4.655 l 32.842,0 -6.676,20.555 z m -44.17,-41.063 2.195,-6.875 -8.166,0 -2.283,6.875 8.254,0 z"
       id="path4476"
       style="fill:#1b3382;fill-opacity:1;stroke:none" /><path
       inkscape:export-ydpi="43.970001"
       inkscape:export-xdpi="43.970001"
       inkscape:export-filename="/home/zane/playground/trunk/liquid_labs/public_relations/presence/site/images/liquid_logo_redux-180x133.png.png"
       inkscape:connector-curvature="0"
       d="m 2085.2186,437.50876 c -0.586,1.813 -1.786,3.363 -3.601,4.65 -1.99,1.463 -4.273,2.193 -6.849,2.193 l -16.421,0 c -1.933,0 -3.455,-0.497 -4.567,-1.491 -1.112,-0.994 -1.668,-2.223 -1.668,-3.686 0,-0.526 0.088,-1.082 0.264,-1.667 l 6.674,-20.531 16.421,0 -4.479,13.688 8.255,0 4.479,-13.688 8.166,0 -6.674,20.532 z"
       id="path4478"
       style="fill:#1b3382;fill-opacity:1" /><path
       inkscape:export-ydpi="43.970001"
       inkscape:export-xdpi="43.970001"
       inkscape:export-filename="/home/zane/playground/trunk/liquid_labs/public_relations/presence/site/images/liquid_logo_redux-180x133.png.png"
       inkscape:connector-curvature="0"
       d="m 2108.6776,444.35276 -16.509,0 8.957,-27.397 16.421,0 -8.869,27.397 z m 11.064,-34.25 -16.421,0 2.195,-6.875 16.509,0 -2.283,6.875 z"
       id="path4480"
       style="fill:#1b3382;fill-opacity:1" /><path
       inkscape:export-ydpi="43.970001"
       inkscape:export-xdpi="43.970001"
       inkscape:export-filename="/home/zane/playground/trunk/liquid_labs/public_relations/presence/site/images/liquid_logo_redux-180x133.png.png"
       inkscape:connector-curvature="0"
       d="m 2149.6936,444.35276 -24.676,0 c -1.99,0 -3.571,-0.557 -4.742,-1.671 -0.995,-0.938 -1.492,-2.14 -1.492,-3.605 0,-0.527 0.088,-1.056 0.264,-1.583 l 4.391,-13.719 c 0.644,-1.935 2.137,-3.605 4.479,-5.013 2.049,-1.23 4.039,-1.847 5.971,-1.847 l 8.255,0 4.478,-13.688 16.421,0 -13.349,41.126 z m -12.03,-13.688 2.195,-6.875 -8.167,0 -2.195,6.875 8.167,0 z"
       id="path4482"
       style="fill:#1b3382;fill-opacity:1" /><path
       inkscape:export-ydpi="43.970001"
       inkscape:export-xdpi="43.970001"
       inkscape:export-filename="/home/zane/playground/trunk/liquid_labs/public_relations/presence/site/images/liquid_logo_redux-180x133.png.png"
       inkscape:connector-curvature="0"
       d="m 2225.6706,471.72776 -49.263,0 c -4.215,0 -6.322,-1.64 -6.322,-4.918 0,-0.645 0.088,-1.288 0.263,-1.932 l 20.109,-61.65 16.421,0 -13.348,41.101 c -0.234,0.585 -0.352,1.17 -0.352,1.756 0,3.396 2.107,5.094 6.323,5.094 l 32.842,0 -6.673,20.549 z"
       id="path4484"
       style="fill:#1b3382;fill-opacity:1" /><path
       inkscape:export-ydpi="43.970001"
       inkscape:export-xdpi="43.970001"
       inkscape:export-filename="/home/zane/playground/trunk/liquid_labs/public_relations/presence/site/images/liquid_logo_redux-180x133.png.png"
       inkscape:connector-curvature="0"
       d="m 2234.0186,444.35276 -8.518,0 0.966,-2.281 c -2.811,1.521 -5.035,2.281 -6.674,2.281 l -10.449,0 c -1.405,0 -2.752,-0.41 -4.04,-1.231 -1.464,-0.938 -2.195,-2.198 -2.195,-3.781 0,-0.586 0.088,-1.201 0.264,-1.847 l 4.479,-13.719 c 0.526,-1.641 1.829,-3.194 3.907,-4.66 2.078,-1.466 4.26,-2.199 6.543,-2.199 l 24.675,0 -8.958,27.437 z m -3.775,-13.688 2.283,-6.875 -8.255,0 -2.195,6.875 8.167,0 z"
       id="path4486"
       style="fill:#1b3382;fill-opacity:1" /><path
       inkscape:export-ydpi="43.970001"
       inkscape:export-xdpi="43.970001"
       inkscape:export-filename="/home/zane/playground/trunk/liquid_labs/public_relations/presence/site/images/liquid_logo_redux-180x133.png.png"
       inkscape:connector-curvature="0"
       d="m 2277.6735,437.49276 c -0.703,2.17 -2.064,3.855 -4.084,5.057 -2.02,1.202 -4.141,1.803 -6.365,1.803 l -24.6759,0 13.348,-41.125 16.5079,0 -4.477,13.688 8.166,0 c 1.873,0 3.41,0.426 4.609,1.275 1.199,0.849 1.801,2.037 1.801,3.562 0,0.645 -0.117,1.319 -0.352,2.022 l -4.478,13.718 z m -5.97,-6.828 2.195,-6.875 -8.254,0 -2.1949,6.875 8.2539,0 z"
       id="path4488"
       style="fill:#1b3382;fill-opacity:1" /><path
       inkscape:export-ydpi="43.970001"
       inkscape:export-xdpi="43.970001"
       inkscape:export-filename="/home/zane/playground/trunk/liquid_labs/public_relations/presence/site/images/liquid_logo_redux-180x133.png.png"
       inkscape:connector-curvature="0"
       d="m 2317.3785,464.88376 c -0.645,1.871 -2.063,3.479 -4.259,4.826 -2.195,1.345 -4.26,2.018 -6.191,2.018 l -43.9059,0 6.7619,-20.513 27.397,0 c 5.21,0 8.664,-2.279 10.362,-6.837 0.526,-1.344 0.79,-2.426 0.79,-3.244 0,-2.396 -2.254,-3.594 -6.762,-3.594 l -8.166,0 c -4.216,0 -6.323,-1.645 -6.323,-4.936 0,-0.646 0.088,-1.293 0.264,-1.939 l 2.283,-6.875 c 0.585,-1.821 1.961,-3.423 4.127,-4.804 2.166,-1.381 4.273,-2.071 6.323,-2.071 l 16.421,0 -2.283,6.875 -8.167,0 -2.195,6.875 16.421,0 c 4.215,0 6.322,1.58 6.322,4.738 0,0.644 -0.117,1.346 -0.351,2.105 l -8.869,27.376 z"
       id="path4490"
       style="fill:#1b3382;fill-opacity:1" /><g
       style="fill:#d96201;fill-opacity:1"
       inkscape:export-ydpi="43.970001"
       inkscape:export-xdpi="43.970001"
       inkscape:export-filename="/home/zane/playground/trunk/liquid_labs/public_relations/presence/site/images/liquid_logo_redux-180x133.png.png"
       transform="matrix(0.59608063,0,0,0.59608063,2050.315,340.48907)"
       id="g4492"><g
         style="fill:#d96201;fill-opacity:1"
         id="g4494"><g
           style="fill:#d96201;fill-opacity:1"
           id="g4496"><path
             clip-rule="evenodd"
             d="m 221.901,18.735 c 0,1.349 -1.234,2.444 -2.76,2.444 l 0,0 c -1.524,0 -2.76,-1.095 -2.76,-2.444 l 0,-16.292 c 0,-1.349 1.235,-2.443 2.76,-2.443 l 0,0 c 1.525,0 2.76,1.095 2.76,2.443 l 0,16.292 z"
             id="path4498"
             style="fill:#d96201;fill-opacity:1;fill-rule:evenodd"
             inkscape:connector-curvature="0" /><path
             clip-rule="evenodd"
             d="m 221.901,59.581 c 0,1.349 -1.234,2.443 -2.76,2.443 l 0,0 c -1.524,0 -2.76,-1.095 -2.76,-2.443 l 0,-16.292 c 0,-1.349 1.235,-2.444 2.76,-2.444 l 0,0 c 1.525,0 2.76,1.095 2.76,2.444 l 0,16.292 z"
             id="path4500"
             style="fill:#d96201;fill-opacity:1;fill-rule:evenodd"
             inkscape:connector-curvature="0" /><path
             clip-rule="evenodd"
             d="m 191.33,34.527 c -1.35,0 -2.443,-1.235 -2.443,-2.758 l 0,0 c 0,-1.523 1.093,-2.758 2.443,-2.758 l 16.292,0 c 1.351,0 2.444,1.235 2.444,2.758 l 0,0 c 0,1.523 -1.093,2.758 -2.444,2.758 l -16.292,0 z"
             id="path4502"
             style="fill:#d96201;fill-opacity:1;fill-rule:evenodd"
             inkscape:connector-curvature="0" /><path
             clip-rule="evenodd"
             d="m 232.175,34.527 c -1.35,0 -2.443,-1.235 -2.443,-2.758 l 0,0 c 0,-1.523 1.094,-2.758 2.443,-2.758 l 16.292,0 c 1.351,0 2.444,1.235 2.444,2.758 l 0,0 c 0,1.523 -1.094,2.758 -2.444,2.758 l -16.292,0 z"
             id="path4504"
             style="fill:#d96201;fill-opacity:1;fill-rule:evenodd"
             inkscape:connector-curvature="0" /></g><g
           style="fill:#d96201;fill-opacity:1"
           id="g4506"><path
             clip-rule="evenodd"
             d="m 212.034,20.001 c 0.955,0.955 0.854,2.603 -0.223,3.679 l 0,0 c -1.078,1.079 -2.724,1.179 -3.679,0.225 l -11.52,-11.521 c -0.955,-0.954 -0.855,-2.602 0.223,-3.678 l 0,0 c 1.077,-1.079 2.725,-1.179 3.679,-0.225 l 11.52,11.52 z"
             id="path4508"
             style="fill:#d96201;fill-opacity:1;fill-rule:evenodd"
             inkscape:connector-curvature="0" /><path
             clip-rule="evenodd"
             d="m 243.186,49.64 c 0.954,0.955 0.854,2.604 -0.224,3.679 l 0,0 c -1.078,1.079 -2.724,1.179 -3.678,0.225 l -11.521,-11.52 c -0.954,-0.955 -0.855,-2.602 0.224,-3.679 l 0,0 c 1.076,-1.079 2.724,-1.179 3.678,-0.225 l 11.521,11.52 z"
             id="path4510"
             style="fill:#d96201;fill-opacity:1;fill-rule:evenodd"
             inkscape:connector-curvature="0" /><path
             clip-rule="evenodd"
             d="m 200.514,53.543 c -0.954,0.955 -2.602,0.854 -3.679,-0.225 l 0,0 c -1.078,-1.077 -1.177,-2.724 -0.223,-3.679 l 11.52,-11.52 c 0.955,-0.955 2.601,-0.854 3.679,0.225 l 0,0 c 1.076,1.077 1.178,2.724 0.223,3.679 l -11.52,11.52 z"
             id="path4512"
             style="fill:#d96201;fill-opacity:1;fill-rule:evenodd"
             inkscape:connector-curvature="0" /><path
             clip-rule="evenodd"
             d="m 231.665,23.905 c -0.954,0.954 -2.602,0.854 -3.678,-0.225 l 0,0 c -1.079,-1.077 -1.178,-2.724 -0.224,-3.679 l 11.521,-11.52 c 0.954,-0.955 2.6,-0.854 3.678,0.225 l 0,0 c 1.078,1.077 1.178,2.724 0.224,3.678 l -11.521,11.521 z"
             id="path4514"
             style="fill:#d96201;fill-opacity:1;fill-rule:evenodd"
             inkscape:connector-curvature="0" /></g></g></g><path
       inkscape:export-ydpi="43.970001"
       inkscape:export-xdpi="43.970001"
       inkscape:export-filename="/home/zane/playground/trunk/liquid_labs/public_relations/presence/site/images/liquid_logo_redux-180x133.png.png"
       transform="matrix(0.59608063,0,0,0.59608063,2008.1679,219.94073)"
       d="m 248.73213,452.4133 c 0,14.36788 -11.64747,26.01535 -26.01535,26.01535 -14.36788,0 -26.01535,-11.64747 -26.01535,-26.01535 0,-14.36788 11.64747,-26.01535 26.01535,-26.01535 14.36788,0 26.01535,11.64747 26.01535,26.01535 z"
       sodipodi:ry="26.01535"
       sodipodi:rx="26.01535"
       sodipodi:cy="452.4133"
       sodipodi:cx="222.71678"
       id="path4516"
       style="fill:none;stroke:#1b3382;stroke-width:5;stroke-miterlimit:4;stroke-opacity:1;stroke-dasharray:none"
       sodipodi:type="arc" /><path
       inkscape:export-ydpi="43.970001"
       inkscape:export-xdpi="43.970001"
       inkscape:export-filename="/home/zane/playground/trunk/liquid_labs/public_relations/presence/site/images/liquid_logo_redux-180x133.png.png"
       transform="matrix(0.32702797,0,0,0.32702797,2084.6468,317.25561)"
       d="m 248.73213,452.4133 c 0,14.36788 -11.64747,26.01535 -26.01535,26.01535 -14.36788,0 -26.01535,-11.64747 -26.01535,-26.01535 0,-14.36788 11.64747,-26.01535 26.01535,-26.01535 14.36788,0 26.01535,11.64747 26.01535,26.01535 z"
       sodipodi:ry="26.01535"
       sodipodi:rx="26.01535"
       sodipodi:cy="452.4133"
       sodipodi:cx="222.71678"
       id="path4518"
       style="fill:none;stroke:#1b3382;stroke-width:9.11360359;stroke-miterlimit:4;stroke-opacity:1;stroke-dasharray:none"
       sodipodi:type="arc" /><path
       inkscape:export-ydpi="43.970001"
       inkscape:export-xdpi="43.970001"
       inkscape:export-filename="/home/zane/playground/trunk/liquid_labs/public_relations/presence/site/images/liquid_logo_redux-180x133.png.png"
       transform="matrix(0.42119637,0,0,0.42119637,2060.5214,250.43703)"
       d="m 248.73213,452.4133 c 0,14.36788 -11.64747,26.01535 -26.01535,26.01535 -14.36788,0 -26.01535,-11.64747 -26.01535,-26.01535 0,-14.36788 11.64747,-26.01535 26.01535,-26.01535 14.36788,0 26.01535,11.64747 26.01535,26.01535 z"
       sodipodi:ry="26.01535"
       sodipodi:rx="26.01535"
       sodipodi:cy="452.4133"
       sodipodi:cx="222.71678"
       id="path4520"
       style="fill:none;stroke:#1b3382;stroke-width:7.07604218;stroke-miterlimit:4;stroke-opacity:1;stroke-dasharray:none"
       sodipodi:type="arc" /><path
       inkscape:export-ydpi="43.970001"
       inkscape:export-xdpi="43.970001"
       inkscape:export-filename="/home/zane/playground/trunk/liquid_labs/public_relations/presence/site/images/liquid_logo_redux-180x133.png.png"
       transform="matrix(0.63908021,0,0,0.63908021,2043.1296,281.49931)"
       d="m 218.90966,170.36882 c 0,9.81221 -7.95437,17.76658 -17.76658,17.76658 -9.81221,0 -17.76658,-7.95437 -17.76658,-17.76658 0,-9.81221 7.95437,-17.76658 17.76658,-17.76658 9.81221,0 17.76658,7.95437 17.76658,17.76658 z"
       sodipodi:ry="17.766581"
       sodipodi:rx="17.766581"
       sodipodi:cy="170.36882"
       sodipodi:cx="201.14308"
       id="path4522"
       style="fill:none;stroke:#1b3382;stroke-width:4.66358232;stroke-miterlimit:4;stroke-opacity:1;stroke-dasharray:none"
       sodipodi:type="arc" /><path
       inkscape:export-ydpi="43.970001"
       inkscape:export-xdpi="43.970001"
       inkscape:export-filename="/home/zane/playground/trunk/liquid_labs/public_relations/presence/site/images/liquid_logo_redux-180x133.png.png"
       transform="matrix(0.25282355,0,0,0.25282355,2114.4731,305.8242)"
       d="m 248.73213,452.4133 c 0,14.36788 -11.64747,26.01535 -26.01535,26.01535 -14.36788,0 -26.01535,-11.64747 -26.01535,-26.01535 0,-14.36788 11.64747,-26.01535 26.01535,-26.01535 14.36788,0 26.01535,11.64747 26.01535,26.01535 z"
       sodipodi:ry="26.01535"
       sodipodi:rx="26.01535"
       sodipodi:cy="452.4133"
       sodipodi:cx="222.71678"
       id="path4524"
       style="fill:none;stroke:#1b3382;stroke-width:11.78847218;stroke-miterlimit:4;stroke-opacity:1;stroke-dasharray:none"
       sodipodi:type="arc" /><path
       inkscape:export-ydpi="43.970001"
       inkscape:export-xdpi="43.970001"
       inkscape:export-filename="/home/zane/playground/trunk/liquid_labs/public_relations/presence/site/images/liquid_logo_redux-180x133.png.png"
       sodipodi:nodetypes="ssccsccss"
       inkscape:connector-curvature="0"
       id="path4526"
       d="m 2153.7227,429.38906 c -6.0517,0 -11.0002,5.0634 -11.0002,11.1151 0,1.1789 -0.2001,1.9554 0.1445,3.0195 l 1.5312,0 c -0.2878,-0.9856 -0.3454,-2.018 -0.238,-3.2284 0.4601,-5.185 4.0663,-9.0219 9.1563,-9.5312 l 0.4375,-1.375 c -0.011,0 -0.021,0 -0.031,0 z"
       style="fill:#1b3301;fill-opacity:1;stroke:#d96201;stroke-width:1.60000002;stroke-miterlimit:4;stroke-opacity:1;stroke-dasharray:none" /></g></svg>